<?xml version="1.0" encoding="UTF-8" standalone="no"?>
<svg
   xmlns:dc="http://purl.org/dc/elements/1.1/"
   xmlns:cc="http://creativecommons.org/ns#"
   xmlns:rdf="http://www.w3.org/1999/02/22-rdf-syntax-ns#"
   xmlns:svg="http://www.w3.org/2000/svg"
   xmlns="http://www.w3.org/2000/svg"
   xmlns:sodipodi="http://sodipodi.sourceforge.net/DTD/sodipodi-0.dtd"
   xmlns:inkscape="http://www.inkscape.org/namespaces/inkscape"
   width="100%"
   height="100%"
   viewBox="0 0 100 100"
   version="1.1"
   xml:space="preserve"
   style="fill-rule:evenodd;clip-rule:evenodd;stroke-linejoin:round;stroke-miterlimit:1.41421;"
   id="svg17311"
   inkscape:version="0.91 r13725"
   sodipodi:docname="google-fit-icon.svg"
   inkscape:export-filename="/home/mad/projects/open-humans/activities/fitbit/static/images/badge.png"
   inkscape:export-xdpi="90.225456"
   inkscape:export-ydpi="90.225456"><metadata
     id="metadata17370"><rdf:RDF><cc:Work
         rdf:about=""><dc:format>image/svg+xml</dc:format><dc:type
           rdf:resource="http://purl.org/dc/dcmitype/StillImage" /><dc:title></dc:title></cc:Work></rdf:RDF></metadata><defs
     id="defs17368" /><sodipodi:namedview
     pagecolor="#ffffff"
     bordercolor="#666666"
     borderopacity="1"
     objecttolerance="10"
     gridtolerance="10"
     guidetolerance="10"
     inkscape:pageopacity="0"
     inkscape:pageshadow="2"
     inkscape:window-width="3070"
     inkscape:window-height="1752"
     id="namedview17366"
     showgrid="true"
     inkscape:snap-bbox="true"
     inkscape:bbox-nodes="true"
     inkscape:snap-bbox-edge-midpoints="true"
     inkscape:zoom="2.36"
     inkscape:cx="21.726624"
     inkscape:cy="75.406333"
     inkscape:window-x="130"
     inkscape:window-y="48"
     inkscape:window-maximized="1"
     inkscape:current-layer="svg17311"
     inkscape:snap-global="false"><inkscape:grid
       type="xygrid"
       id="grid18529" /></sodipodi:namedview><circle
     id="path2987"
     cx="49.985054"
     cy="50.077412"
     r="48.943653"
     style="fill:#4ac1c8;fill-opacity:1;stroke:#4ac1c8;stroke-width:1.95786381;stroke-miterlimit:1.41420996;stroke-dasharray:none;stroke-opacity:1"
     inkscape:export-xdpi="90.225456"
     inkscape:export-ydpi="90.225456" /><path
     style="clip-rule:evenodd;fill:#ffffff;fill-rule:evenodd;stroke-linejoin:round;stroke-miterlimit:1.41420996"
     d="M 29.541016,19.408203 C 13.057378,18.999441 1.4306091,39.001613 9.1015625,53.341797 16.342443,63.612003 26.282317,71.788974 34.846089,80.968461 c 5.063284,4.133535 9.127206,10.602742 15.212505,12.783492 6.8562,-1.698755 10.016731,-9.136531 15.447265,-13.078125 C 74.459536,71.141062 85.71494,63.101179 92.042969,51.46875 97.773525,37.935457 87.947402,20.496754 72.96875,19.607422 64.216786,18.110557 55.917581,22.642681 50.201172,28.988281 44.974091,23.235888 37.443052,19.220252 29.541016,19.408203 Z m 1.167968,20.046875 c 2.586486,0.926845 7.359426,3.943859 3.177735,6.267578 -1.557419,2.734247 -4.104171,4.266409 -5.636719,0.228516 -2.384337,-2.698873 -1.699094,-6.460356 2.458984,-6.496094 z m 39.341797,0.05664 c 4.442682,0.03397 3.897803,6.514712 0.357416,7.781053 -6.708995,6.628784 -13.571304,14.663378 -20.552728,19.959181 -1.087244,-1.77355 -7.517402,-3.945559 -3.447266,-6.109375 7.902648,-7.04593 14.633144,-16.278862 23.642578,-21.630859 z"
     id="path27713-9"
     inkscape:connector-curvature="0" /><path
     style="fill:#ff9161;fill-opacity:1"
     d="M 32.464578,72.788164 C 22.486571,62.77218 14.67807,54.645605 13.871392,53.43759 11.58556,50.014529 10.482846,44.976067 11.04306,40.514514 c 0.817865,-6.513512 4.854267,-12.166833 10.711606,-15.00251 3.115764,-1.508414 4.908955,-1.915704 8.481723,-1.926469 6.826951,-0.02057 10.748731,1.896516 17.172569,8.394482 l 2.79109,2.8233 4.067869,-3.942419 c 5.883648,-5.702202 9.393015,-7.352782 15.611542,-7.342658 3.99227,0.0065 6.013384,0.449128 9.335031,2.044391 2.8773,1.38186 6.351226,4.551565 7.91742,7.224074 3.336625,5.693522 3.469187,12.909308 0.354217,19.281294 -1.221978,2.499677 -2.21785,3.565235 -18.984608,20.313074 -9.732239,9.721255 -17.951372,17.675011 -18.264738,17.675011 -0.31337,0 -8.31086,-7.770565 -17.772203,-17.26792 z M 63.513265,60.24599 c 8.752092,-8.761765 13.08624,-13.347833 13.452331,-14.234234 1.07643,-2.606329 0.542262,-5.913894 -1.301839,-8.060995 -2.002647,-2.3317 -6.050851,-3.10724 -8.863059,-1.697951 -0.863695,0.432824 -6.584497,5.790169 -14.444519,13.526811 l -13.014437,12.810154 5.271725,5.29136 c 2.899449,2.910246 5.43279,5.291356 5.629644,5.291356 0.196861,0 6.168428,-5.816925 13.270154,-12.926501 z M 36.435616,48.994658 c 2.855845,-2.851083 5.192445,-5.300289 5.192445,-5.442679 0,-0.532428 -6.558262,-6.69699 -7.812235,-7.343257 -3.691286,-1.902398 -8.983832,0.145128 -10.468432,4.04992 -0.530427,1.395131 -0.440918,4.254 0.180127,5.753114 0.453291,1.094179 6.980858,8.166692 7.537438,8.166692 0.09801,0 2.514812,-2.332704 5.370657,-5.18379 z"
     id="path27713"
     inkscape:connector-curvature="0" /></svg>